<svg width="251" height="94" viewBox="0 0 251 94" fill="none" xmlns="http://www.w3.org/2000/svg">
<path d="M250.055 18.1512C250.562 22.653 247.584 26.6838 243.404 27.1542C239.223 27.6247 235.424 24.3566 234.917 19.8548C234.411 15.353 237.389 11.3222 241.569 10.8518C245.749 10.3813 249.549 13.6494 250.055 18.1512Z" fill="white"/>
<path fill-rule="evenodd" clip-rule="evenodd" d="M243.068 24.173C245.398 23.9109 247.419 21.5539 247.074 18.4867C246.729 15.4194 244.234 13.5708 241.904 13.833C239.575 14.0951 237.553 16.4521 237.899 19.5193C238.244 22.5866 240.739 24.4352 243.068 24.173ZM243.404 27.1542C247.584 26.6838 250.562 22.653 250.055 18.1512C249.549 13.6494 245.749 10.3813 241.569 10.8518C237.389 11.3222 234.411 15.353 234.917 19.8548C235.424 24.3566 239.223 27.6247 243.404 27.1542Z" fill="#2D9CDB"/>
<path d="M12.5469 1.75L34.8594 57.4375L57.1719 1.75L68.8438 1.75L68.8437 70H59.8437L59.8437 43.4219L60.6875 14.7344L38.2812 70H31.3906L9.03125 14.875L9.92187 43.4219L9.92187 70H0.921875L0.921875 1.75L12.5469 1.75Z" fill="#2D9CDB"/>
<path d="M104.422 70.9375C97.5469 70.9375 91.9531 68.6875 87.6406 64.1875C83.3281 59.6563 81.1719 53.6094 81.1719 46.0469L81.1719 44.4531C81.1719 39.4219 82.125 34.9375 84.0312 31C85.9688 27.0313 88.6562 23.9375 92.0938 21.7188C95.5625 19.4688 99.3125 18.3438 103.344 18.3438C109.938 18.3438 115.062 20.5156 118.719 24.8594C122.375 29.2031 124.203 35.4219 124.203 43.5156L124.203 47.125L89.8437 47.125C89.9687 52.125 91.4219 56.1719 94.2031 59.2656C97.0156 62.3281 100.578 63.8594 104.891 63.8594C107.953 63.8594 110.547 63.2344 112.672 61.9844C114.797 60.7344 116.656 59.0781 118.25 57.0156L123.547 61.1406C119.297 67.6719 112.922 70.9375 104.422 70.9375ZM103.344 25.4688C99.8438 25.4688 96.9062 26.75 94.5312 29.3125C92.1562 31.8438 90.6875 35.4063 90.125 40L115.531 40V39.3438C115.281 34.9375 114.094 31.5313 111.969 29.125C109.844 26.6875 106.969 25.4688 103.344 25.4688Z" fill="#2D9CDB"/>
<path d="M155.75 39.5781C148.031 37.3594 142.406 34.6406 138.875 31.4219C135.375 28.1719 133.625 24.1719 133.625 19.4219C133.625 14.0469 135.766 9.60938 140.047 6.10938C144.359 2.57813 149.953 0.8125 156.828 0.8125C161.516 0.8125 165.688 1.71875 169.344 3.53125C173.031 5.34375 175.875 7.84375 177.875 11.0313C179.906 14.2188 180.922 17.7031 180.922 21.4844H171.875C171.875 17.3594 170.562 14.125 167.938 11.7813C165.312 9.40625 161.609 8.21875 156.828 8.21875C152.391 8.21875 148.922 9.20313 146.422 11.1719C143.953 13.1094 142.719 15.8125 142.719 19.2813C142.719 22.0625 143.891 24.4219 146.234 26.3594C148.609 28.2656 152.625 30.0156 158.281 31.6094C163.969 33.2031 168.406 34.9688 171.594 36.9063C174.812 38.8125 177.188 41.0469 178.719 43.6094C180.281 46.1719 181.062 49.1875 181.062 52.6563C181.062 58.1875 178.906 62.625 174.594 65.9688C170.281 69.2813 164.516 70.9375 157.297 70.9375C152.609 70.9375 148.234 70.0469 144.172 68.2656C140.109 66.4531 136.969 63.9844 134.75 60.8594C132.562 57.7344 131.469 54.1875 131.469 50.2188H140.516C140.516 54.3438 142.031 57.6094 145.062 60.0156C148.125 62.3906 152.203 63.5781 157.297 63.5781C162.047 63.5781 165.688 62.6094 168.219 60.6719C170.75 58.7344 172.016 56.0938 172.016 52.75C172.016 49.4063 170.844 46.8281 168.5 45.0156C166.156 43.1719 161.906 41.3594 155.75 39.5781Z" fill="#2D9CDB"/>
<path d="M188.984 44.1719C188.984 39.2031 189.953 34.7344 191.891 30.7656C193.859 26.7969 196.578 23.7344 200.047 21.5781C203.547 19.4219 207.531 18.3438 212 18.3438C218.906 18.3438 224.484 20.7344 228.734 25.5156C233.016 30.2969 235.156 36.6563 235.156 44.5938V45.2031C235.156 50.1406 234.203 54.5781 232.297 58.5156C230.422 62.4219 227.719 65.4688 224.188 67.6563C220.688 69.8438 216.656 70.9375 212.094 70.9375C205.219 70.9375 199.641 68.5469 195.359 63.7656C191.109 58.9844 188.984 52.6563 188.984 44.7813V44.1719ZM197.703 45.2031C197.703 50.8281 199 55.3438 201.594 58.75C204.219 62.1563 207.719 63.8594 212.094 63.8594C216.5 63.8594 220 62.1406 222.594 58.7031C225.188 55.2344 226.484 50.3906 226.484 44.1719C226.484 38.6094 225.156 34.1094 222.5 30.6719C219.875 27.2031 216.375 25.4688 212 25.4688C207.719 25.4688 204.266 27.1719 201.641 30.5781C199.016 33.9844 197.703 38.8594 197.703 45.2031Z" fill="#2D9CDB"/>
<path d="M95.2949 93C95.222 92.8587 95.1582 92.6286 95.1035 92.3096C94.5749 92.861 93.9277 93.1367 93.1621 93.1367C92.4193 93.1367 91.8132 92.9248 91.3438 92.501C90.8743 92.0771 90.6396 91.5531 90.6396 90.9287C90.6396 90.1403 90.9313 89.5365 91.5146 89.1172C92.1025 88.6934 92.9411 88.4814 94.0303 88.4814H95.0488V87.9961C95.0488 87.6133 94.9417 87.3079 94.7275 87.0801C94.5133 86.8477 94.1875 86.7314 93.75 86.7314C93.3717 86.7314 93.0618 86.8271 92.8203 87.0186C92.5788 87.2054 92.458 87.4447 92.458 87.7363H90.7969C90.7969 87.3307 90.9313 86.9525 91.2002 86.6016C91.4691 86.2461 91.8337 85.9681 92.2939 85.7676C92.7588 85.5671 93.276 85.4668 93.8457 85.4668C94.7116 85.4668 95.402 85.6855 95.917 86.123C96.432 86.556 96.6963 87.1667 96.71 87.9551V91.291C96.71 91.9564 96.8034 92.4873 96.9902 92.8838V93H95.2949ZM93.4697 91.8037C93.7979 91.8037 94.1055 91.724 94.3926 91.5645C94.6842 91.4049 94.903 91.1908 95.0488 90.9219V89.5273H94.1533C93.5381 89.5273 93.0755 89.6344 92.7656 89.8486C92.4557 90.0628 92.3008 90.3659 92.3008 90.7578C92.3008 91.0768 92.4056 91.332 92.6152 91.5234C92.8294 91.7103 93.1143 91.8037 93.4697 91.8037Z" fill="#BDBDBD"/>
<path d="M99.9912 85.6035L100.039 86.458C100.586 85.7972 101.304 85.4668 102.192 85.4668C103.733 85.4668 104.517 86.3486 104.544 88.1123V93H102.883V88.208C102.883 87.7386 102.78 87.3923 102.575 87.1689C102.375 86.9411 102.044 86.8271 101.584 86.8271C100.914 86.8271 100.415 87.1302 100.087 87.7363V93H98.4258V85.6035H99.9912Z" fill="#BDBDBD"/>
<path d="M111.715 93H109.992V83.0469H111.715V93Z" fill="#BDBDBD"/>
<path d="M115.222 85.6035L115.27 86.458C115.816 85.7972 116.534 85.4668 117.423 85.4668C118.963 85.4668 119.747 86.3486 119.774 88.1123V93H118.113V88.208C118.113 87.7386 118.011 87.3923 117.806 87.1689C117.605 86.9411 117.275 86.8271 116.814 86.8271C116.145 86.8271 115.646 87.1302 115.317 87.7363V93H113.656V85.6035H115.222Z" fill="#BDBDBD"/>
<path d="M121.914 93V86.834H120.786V85.6035H121.914V85.0977C121.919 84.5189 122.042 84.0221 122.283 83.6074C122.525 83.1927 122.867 82.8805 123.309 82.6709C123.751 82.4613 124.282 82.3564 124.901 82.3564C125.266 82.3564 125.615 82.3952 125.947 82.4727C126.285 82.5501 126.633 82.6481 126.993 82.7666L126.74 84.1406C126.111 83.9219 125.537 83.8125 125.018 83.8125C124.512 83.8125 124.145 83.9242 123.917 84.1475C123.689 84.3662 123.575 84.6966 123.575 85.1387V85.6035H125.031V86.834H123.575V93H121.914ZM127.779 93H126.118V85.6035H127.779V93Z" fill="#BDBDBD"/>
<path d="M131.163 85.6035L131.211 86.458C131.758 85.7972 132.476 85.4668 133.364 85.4668C134.905 85.4668 135.688 86.3486 135.716 88.1123V93H134.055V88.208C134.055 87.7386 133.952 87.3923 133.747 87.1689C133.547 86.9411 133.216 86.8271 132.756 86.8271C132.086 86.8271 131.587 87.1302 131.259 87.7363V93H129.598V85.6035H131.163Z" fill="#BDBDBD"/>
<path d="M139.182 93H137.521V85.6035H139.182V93ZM137.418 83.6826C137.418 83.4274 137.498 83.2155 137.657 83.0469C137.821 82.8783 138.054 82.7939 138.354 82.7939C138.655 82.7939 138.888 82.8783 139.052 83.0469C139.216 83.2155 139.298 83.4274 139.298 83.6826C139.298 83.9333 139.216 84.1429 139.052 84.3115C138.888 84.4756 138.655 84.5576 138.354 84.5576C138.054 84.5576 137.821 84.4756 137.657 84.3115C137.498 84.1429 137.418 83.9333 137.418 83.6826Z" fill="#BDBDBD"/>
<path d="M149.06 93H147.337V88.5771H142.887V93H141.157V83.0469H142.887V87.1895H147.337V83.0469H149.06V93Z" fill="#BDBDBD"/>
<path d="M154.207 93.1367C153.154 93.1367 152.3 92.8063 151.644 92.1455C150.992 91.4801 150.666 90.596 150.666 89.4932V89.2881C150.666 88.5498 150.807 87.8913 151.09 87.3125C151.377 86.7292 151.778 86.2757 152.293 85.9521C152.808 85.6286 153.382 85.4668 154.016 85.4668C155.023 85.4668 155.8 85.7881 156.347 86.4307C156.898 87.0732 157.174 87.9824 157.174 89.1582V89.8281H152.341C152.391 90.4388 152.594 90.9219 152.949 91.2773C153.309 91.6328 153.76 91.8105 154.303 91.8105C155.064 91.8105 155.684 91.5029 156.162 90.8877L157.058 91.7422C156.761 92.1842 156.365 92.5283 155.868 92.7744C155.376 93.016 154.822 93.1367 154.207 93.1367ZM154.009 86.7998C153.553 86.7998 153.184 86.9593 152.901 87.2783C152.623 87.5973 152.446 88.0417 152.368 88.6113H155.533V88.4883C155.497 87.9323 155.349 87.513 155.089 87.2305C154.829 86.9434 154.469 86.7998 154.009 86.7998Z" fill="#BDBDBD"/>
<path d="M162.889 93C162.816 92.8587 162.752 92.6286 162.697 92.3096C162.169 92.861 161.521 93.1367 160.756 93.1367C160.013 93.1367 159.407 92.9248 158.938 92.501C158.468 92.0771 158.233 91.5531 158.233 90.9287C158.233 90.1403 158.525 89.5365 159.108 89.1172C159.696 88.6934 160.535 88.4814 161.624 88.4814H162.643V87.9961C162.643 87.6133 162.535 87.3079 162.321 87.0801C162.107 86.8477 161.781 86.7314 161.344 86.7314C160.965 86.7314 160.656 86.8271 160.414 87.0186C160.173 87.2054 160.052 87.4447 160.052 87.7363H158.391C158.391 87.3307 158.525 86.9525 158.794 86.6016C159.063 86.2461 159.427 85.9681 159.888 85.7676C160.353 85.5671 160.87 85.4668 161.439 85.4668C162.305 85.4668 162.996 85.6855 163.511 86.123C164.026 86.556 164.29 87.1667 164.304 87.9551V91.291C164.304 91.9564 164.397 92.4873 164.584 92.8838V93H162.889ZM161.063 91.8037C161.392 91.8037 161.699 91.724 161.986 91.5645C162.278 91.4049 162.497 91.1908 162.643 90.9219V89.5273H161.747C161.132 89.5273 160.669 89.6344 160.359 89.8486C160.049 90.0628 159.895 90.3659 159.895 90.7578C159.895 91.0768 159.999 91.332 160.209 91.5234C160.423 91.7103 160.708 91.8037 161.063 91.8037Z" fill="#BDBDBD"/>
<path d="M167.811 93H166.149V82.5H167.811V93Z" fill="#BDBDBD"/>
<path d="M171.707 83.8057V85.6035H173.013V86.834H171.707V90.9629C171.707 91.2454 171.762 91.4505 171.871 91.5781C171.985 91.7012 172.186 91.7627 172.473 91.7627C172.664 91.7627 172.858 91.7399 173.054 91.6943V92.9795C172.675 93.0843 172.311 93.1367 171.96 93.1367C170.684 93.1367 170.046 92.4326 170.046 91.0244V86.834H168.829V85.6035H170.046V83.8057H171.707Z" fill="#BDBDBD"/>
<path d="M175.925 86.4102C176.467 85.7812 177.153 85.4668 177.982 85.4668C179.559 85.4668 180.359 86.3669 180.382 88.167V93H178.721V88.2285C178.721 87.7181 178.609 87.3581 178.386 87.1484C178.167 86.9342 177.843 86.8271 177.415 86.8271C176.75 86.8271 176.253 87.1234 175.925 87.7158V93H174.264V82.5H175.925V86.4102Z" fill="#BDBDBD"/>
<path d="M187.443 89.3018V93H185.714V83.0469H189.521C190.633 83.0469 191.515 83.3363 192.167 83.915C192.823 84.4938 193.151 85.2594 193.151 86.2119C193.151 87.1872 192.83 87.946 192.188 88.4883C191.549 89.0306 190.654 89.3018 189.501 89.3018H187.443ZM187.443 87.9141H189.521C190.137 87.9141 190.606 87.7705 190.93 87.4834C191.253 87.1917 191.415 86.7725 191.415 86.2256C191.415 85.6878 191.251 85.2594 190.923 84.9404C190.595 84.6169 190.144 84.4505 189.569 84.4414H187.443V87.9141Z" fill="#BDBDBD"/>
<path d="M198.381 87.1211C198.162 87.0846 197.937 87.0664 197.704 87.0664C196.943 87.0664 196.43 87.3581 196.166 87.9414V93H194.505V85.6035H196.091L196.132 86.4307C196.533 85.7881 197.089 85.4668 197.8 85.4668C198.037 85.4668 198.233 85.4987 198.388 85.5625L198.381 87.1211Z" fill="#BDBDBD"/>
<path d="M198.873 89.2334C198.873 88.5088 199.017 87.8571 199.304 87.2783C199.591 86.695 199.994 86.2484 200.514 85.9385C201.033 85.624 201.63 85.4668 202.305 85.4668C203.303 85.4668 204.112 85.7881 204.731 86.4307C205.356 87.0732 205.693 87.9255 205.743 88.9873L205.75 89.377C205.75 90.1061 205.609 90.7578 205.326 91.332C205.048 91.9062 204.647 92.3506 204.123 92.665C203.604 92.9795 203.002 93.1367 202.318 93.1367C201.275 93.1367 200.438 92.7904 199.81 92.0977C199.185 91.4004 198.873 90.473 198.873 89.3154V89.2334ZM200.534 89.377C200.534 90.138 200.691 90.735 201.006 91.168C201.32 91.5964 201.758 91.8105 202.318 91.8105C202.879 91.8105 203.314 91.5918 203.624 91.1543C203.938 90.7168 204.096 90.0765 204.096 89.2334C204.096 88.486 203.934 87.8936 203.61 87.4561C203.291 87.0186 202.856 86.7998 202.305 86.7998C201.762 86.7998 201.332 87.0163 201.013 87.4492C200.694 87.8776 200.534 88.5202 200.534 89.377Z" fill="#BDBDBD"/>
<path d="M206.844 89.2471C206.844 88.1077 207.108 87.194 207.637 86.5059C208.165 85.8132 208.874 85.4668 209.763 85.4668C210.547 85.4668 211.18 85.7402 211.663 86.2871V82.5H213.324V93H211.82L211.738 92.2344C211.242 92.8359 210.578 93.1367 209.749 93.1367C208.883 93.1367 208.181 92.7881 207.644 92.0908C207.11 91.3936 206.844 90.4456 206.844 89.2471ZM208.505 89.3906C208.505 90.1426 208.648 90.7305 208.936 91.1543C209.227 91.5736 209.64 91.7832 210.173 91.7832C210.852 91.7832 211.349 91.4801 211.663 90.874V87.7158C211.358 87.1234 210.866 86.8271 210.187 86.8271C209.649 86.8271 209.234 87.0413 208.942 87.4697C208.651 87.8936 208.505 88.5339 208.505 89.3906Z" fill="#BDBDBD"/>
<path d="M219.538 92.2754C219.05 92.8496 218.358 93.1367 217.46 93.1367C216.658 93.1367 216.049 92.902 215.635 92.4326C215.225 91.9632 215.02 91.2842 215.02 90.3955V85.6035H216.681V90.375C216.681 91.3138 217.07 91.7832 217.85 91.7832C218.656 91.7832 219.201 91.4938 219.483 90.915V85.6035H221.145V93H219.579L219.538 92.2754Z" fill="#BDBDBD"/>
<path d="M225.875 91.8105C226.29 91.8105 226.634 91.6898 226.907 91.4482C227.181 91.2067 227.326 90.9082 227.345 90.5527H228.91C228.892 91.013 228.748 91.4437 228.479 91.8447C228.211 92.2412 227.846 92.5557 227.386 92.7881C226.925 93.0205 226.429 93.1367 225.896 93.1367C224.861 93.1367 224.041 92.8018 223.435 92.1318C222.828 91.4619 222.525 90.5368 222.525 89.3564V89.1855C222.525 88.0599 222.826 87.1598 223.428 86.4854C224.029 85.8063 224.85 85.4668 225.889 85.4668C226.768 85.4668 227.484 85.7243 228.035 86.2393C228.591 86.7497 228.883 87.4219 228.91 88.2559H227.345C227.326 87.832 227.181 87.4834 226.907 87.21C226.638 86.9365 226.294 86.7998 225.875 86.7998C225.337 86.7998 224.923 86.9958 224.631 87.3877C224.339 87.7751 224.191 88.3652 224.187 89.1582V89.4248C224.187 90.2269 224.33 90.8262 224.617 91.2227C224.909 91.6146 225.328 91.8105 225.875 91.8105Z" fill="#BDBDBD"/>
<path d="M232.246 83.8057V85.6035H233.552V86.834H232.246V90.9629C232.246 91.2454 232.301 91.4505 232.41 91.5781C232.524 91.7012 232.725 91.7627 233.012 91.7627C233.203 91.7627 233.397 91.7399 233.593 91.6943V92.9795C233.215 93.0843 232.85 93.1367 232.499 93.1367C231.223 93.1367 230.585 92.4326 230.585 91.0244V86.834H229.368V85.6035H230.585V83.8057H232.246Z" fill="#BDBDBD"/>
</svg>
